{"title":"The Casino Job 2009 FS DVDRip XviD AC3-LB","uid":5920173,"size":1483929657,"categoryP":"video","categoryS":"movies","magnet":"?xt=urn:btih:a8ceab84d0d49f4dd93a2a3475b5baaa74ecada9&amp;dn=The+Casino+Job+2009+FS+DVDRip+XviD+AC3-LB&amp;tr=udp%3A%2F%2Ftracker.openbittorrent.com%3A80&amp;tr=udp%3A%2F%2Fopen.demonii.com%3A1337&amp;tr=udp%3A%2F%2Ftracker.coppersurfer.tk%3A6969&amp;tr=udp%3A%2F%2Fexodus.desync.com%3A6969","seeders":0,"leechers":2,"uploader":"IwannaFan2","files":4,"time":1288397368,"description":"Filename:\nThe Casino Job 2009 FS DVDRip XviD AC3-LB\n &lt;a href=&quot;\nhttp://www.imdb.com/title/tt0831279/&quot; rel=&quot;nofollow&quot; target=&quot;_NEW&quot;&gt;\nhttp://www.imdb.com/title/tt0831279/&lt;/a&gt;\n\nVideo\nID                               : 0\nFormat                           : MPEG-4 Visual\nFormat profile                   : AdvancedSimple@L5\nFormat settings, BVOP            : Yes\nFormat settings, QPel            : No\nFormat settings, GMC             : No warppoints\nFormat settings, Matrix          : Custom\nCodec ID                         : XVID\nCodec ID/Hint                    : XviD\nDuration                         : 1h 21mn\nBit rate                         : 1 942 Kbps\nWidth                            : 688 pixels\nHeight                           : 512 pixels\nDisplay aspect ratio             : 4:3\nFrame rate                       : 29.970 fps\nResolution                       : 24 bits\nColorimetry                      : 4:2:0\nScan type                        : Progressive\nBits/(Pixel*Frame)               : 0.184\nStream size                      : 1.11 GiB (81%)\nWriting library                  : XviD 1.2.1 (UTC 2008-12-04)\n\nAudio\nID                               : 1\nFormat                           : AC-3\nFormat/Info                      : Audio Coding 3\nCodec ID                         : 2000\nDuration                         : 1h 21mn\nBit rate mode                    : Constant\nBit rate                         : 448 Kbps\nChannel(s)                       : 5 channels\nChannel positions                : Front: L C R, Surround: L R\nSampling rate                    : 48.0 KHz\nStream size                      : 262 MiB (19%)\nAlignment                        : Split accross interleaves\nInterleave, duration             : 96 ms (2.88 video frames)\nInterleave, preload duration     : 96 ms\n\n\nPlot\nAfter she's sexually assaulted by Las Vegas casino owner Barry Kaylin (Dean Mauro), exotic dancer Jennifer (Amylia Joiner) and four beautiful friends scheme to get revenge by robbing one of Kaylin's resorts. But as their carefully laid plans unfold, Jennifer discovers that one of her crew is hiding a secret that could betray them all.\n","torrent":{"xt":"urn:btih:a8ceab84d0d49f4dd93a2a3475b5baaa74ecada9","amp;dn":"The+Casino+Job+2009+FS+DVDRip+XviD+AC3-LB","amp;tr":["udp%3A%2F%2Ftracker.openbittorrent.com%3A80","udp%3A%2F%2Fopen.demonii.com%3A1337","udp%3A%2F%2Ftracker.coppersurfer.tk%3A6969","udp%3A%2F%2Fexodus.desync.com%3A6969"],"infoHash":"a8ceab84d0d49f4dd93a2a3475b5baaa74ecada9","infoHashBuffer":{"type":"Buffer","data":[168,206,171,132,208,212,159,77,217,58,42,52,117,181,186,170,116,236,173,169]},"announce":[],"urlList":[]}}